<svg width="22" height="23" viewBox="0 0 22 23" fill="none" xmlns="http://www.w3.org/2000/svg">
<path fill-rule="evenodd" clip-rule="evenodd" d="M11 22C16.799 22 21.5 17.299 21.5 11.5C21.5 5.70101 16.799 1 11 1C5.20101 1 0.5 5.70101 0.5 11.5C0.5 17.299 5.20101 22 11 22Z" stroke="#111111" stroke-linecap="round" stroke-linejoin="round"/>
<path d="M14.0014 6.99942H9.79037C9.30505 6.96067 8.82715 7.13667 8.48289 7.48094C8.13863 7.8252 7.96262 8.3031 8.00137 8.78842C8.00137 10.7494 14.0014 12.2494 14.0014 14.2104C14.0101 14.6875 13.8245 15.1477 13.4871 15.4851C13.1496 15.8225 12.6895 16.0082 12.2124 15.9994H8.00137" stroke="#111111" stroke-linecap="round" stroke-linejoin="round"/>
<path d="M11 7V4.75" stroke="#111111" stroke-linecap="round" stroke-linejoin="round"/>
<path d="M11 18.25V16" stroke="#111111" stroke-linecap="round" stroke-linejoin="round"/>
</svg>
