<svg width="201" height="41" viewBox="0 0 201 41" fill="none" xmlns="http://www.w3.org/2000/svg">
<g id="SVG">
<g id="Clip path group">
<mask id="mask0_2495_234" style="mask-type:luminance" maskUnits="userSpaceOnUse" x="0" y="2" width="201" height="37">
<g id="clip0_44699_38160">
<path id="Vector" d="M0.5 2.23511H200.5V38.755H0.5V2.23511Z" fill="white"/>
</g>
</mask>
<g mask="url(#mask0_2495_234)">
<g id="Group">
<g id="Group_2">
<g id="Group_3">
<path id="Vector_2" d="M0.714844 11.9881H7.28842C10.2315 11.9881 11.2626 12.074 12.1219 12.4177C13.7546 13.1911 14.7213 14.7593 14.7213 16.5638C14.7213 18.3039 14.2057 19.1632 12.4656 20.0224C14.2916 20.624 15.4946 22.364 15.3228 24.2545C15.3228 27.1116 13.0672 29.002 9.78036 29.002H0.714844V26.2308H2.00378V14.7593H0.714844V11.9881ZM5.54836 14.7593V18.9054H8.92107C10.1241 18.9913 11.2626 18.132 11.3486 16.9075V16.7357C11.3486 15.6186 10.2315 14.7378 8.66329 14.7378H5.54836V14.7593ZM5.54836 21.5907V26.2523H9.17886C10.5537 26.3382 11.7782 25.393 11.8641 23.9967V23.9107C11.8641 22.4499 10.6611 21.4832 8.83514 21.4832L5.54836 21.5907ZM29.673 24.7917C29.0714 27.6489 26.7299 29.3675 23.615 29.3675C19.9844 29.3675 17.2992 26.5103 17.2992 22.5361C17.2992 18.5619 19.9844 15.7047 23.615 15.7047C25.6128 15.7047 27.5032 16.6499 28.6203 18.39C29.4796 19.8508 29.9952 21.5049 29.9093 23.2235H20.6074C20.9511 26.5962 23.1209 26.7681 23.7224 26.7681C24.9254 26.854 26.0639 25.9947 26.4076 24.8562L29.673 24.7917ZM26.3862 20.9894C26.3862 19.5286 25.1832 18.39 23.7868 18.39H23.7009C22.2401 18.39 21.0156 19.5071 20.7578 20.9034L26.3862 20.9894ZM40.5 20.5599H46.4721V29.024H44.5602V26.3387C44.2165 26.9402 43.7868 27.4557 43.2712 27.9713C42.1542 28.9165 40.7578 29.4321 39.3829 29.4321C35.4087 29.4321 32.2938 25.5438 32.2938 20.517C32.2938 15.4901 35.4087 11.5159 39.297 11.5159C41.4667 11.43 43.3572 12.633 44.3883 14.459V11.8166H46.2143V17.2731H44.3024C44.1305 16.4998 43.7868 15.8124 43.3572 15.1894C42.4979 14.0723 41.1015 13.3634 39.7267 13.2774C37.6429 13.2774 34.5279 15.1034 34.5279 20.3666C34.5279 24.5127 36.7836 27.5417 39.7267 27.5417C42.0682 27.4557 43.9587 25.7157 44.3883 23.4815C44.4742 23.0519 44.4742 22.5363 44.4742 22.1067H40.4141L40.5 20.5599ZM60.9726 29.1099H57.2562V26.7683C56.3969 28.401 54.6568 29.3677 52.8523 29.3677C50.6826 29.5395 48.7922 27.8209 48.6203 25.6512V25.3934C48.6203 22.88 50.79 21.677 55.9673 21.1614L57.1703 21.0755V19.7866C57.1703 18.3258 56.0532 17.3591 54.2272 17.3591C52.4012 17.3591 51.456 17.9606 51.1123 19.7006H49.1144C49.2863 18.6695 49.8018 17.7028 50.5752 17.0154C51.5204 16.242 52.8308 15.8983 54.0339 15.8983C56.7191 15.8983 58.9533 17.1013 58.9533 20.3881V27.5632H60.7793L60.9726 29.1099ZM57.2562 22.3644L56.0532 22.5363C52.079 23.0519 50.7685 23.7393 50.7685 25.3934C50.8545 26.8542 52.0575 27.9069 53.4538 27.9069C55.3658 27.8209 56.9984 26.4461 57.2562 24.5342V22.3644ZM66.4291 18.4757C67.0306 17.6164 68.1692 15.7904 70.5752 15.7904C72.3153 15.7904 73.2605 16.6497 73.6042 18.4757C73.9479 17.8742 74.2916 17.3586 74.8072 16.8431C75.5806 16.1556 76.5473 15.726 77.5784 15.726C79.5763 15.726 80.6934 17.0149 80.6934 19.2706V27.477H82.5193V29.0237H78.8888V19.9582C78.8888 18.132 78.2659 17.2727 76.9769 17.2727C74.7213 17.2727 73.5183 19.958 73.5183 20.9032V27.4768H75.4302V29.0235H71.6278V19.6787C71.6278 18.0461 71.0263 17.3372 69.7159 17.3372C67.7181 17.3372 66.2573 19.8506 66.2573 21.0536V27.5412H68.1692V29.088H62.5408V27.5412H64.4528V17.5305H62.5408V15.9838H66.3432L66.4291 18.4757ZM84.4957 11.2147H88.1262V18.7335C88.6418 17.7883 90.1241 15.8764 92.3582 15.8764C95.3013 15.8764 97.5569 18.9054 97.5569 22.7077C97.5569 26.2525 95.1295 29.2815 92.3582 29.2815C90.0167 29.2815 88.8996 27.7348 88.1262 26.6822V29.1097H84.4098V27.5629H86.2358V12.7617H84.4957V11.2147ZM88.1262 23.5885C88.1262 25.7584 89.7589 27.477 91.8427 27.6489C94.0983 27.6489 95.4732 25.651 95.4732 22.4502C95.4732 19.2493 94.0124 17.3589 91.8427 17.3589C89.9307 17.3589 88.0403 19.4426 88.0403 21.3331L88.1262 23.5885ZM98.674 11.2147H102.39V27.5629H104.131V29.1097H98.5881V27.5629H100.5V12.6757H98.674V11.2147ZM116.827 25.4794C116.655 26.2527 116.311 26.8542 115.795 27.4772C114.764 28.6802 113.282 29.3892 111.649 29.3892C108.105 29.3892 105.591 26.6179 105.591 22.6437C105.591 18.8414 108.105 15.8983 111.306 15.8983C114.506 15.8983 117.106 18.4117 117.106 22.9874H107.675C107.847 24.8994 108.277 26.0164 109.136 26.8757C109.823 27.4772 110.683 27.8209 111.563 27.8209C113.024 27.8209 113.991 27.1335 114.678 25.5653L116.827 25.4794ZM114.915 21.5052C114.915 20.3021 114.485 19.1636 113.626 18.2184C113.024 17.7028 112.251 17.3591 111.456 17.445C109.823 17.5309 108.427 18.648 107.997 20.2162C107.911 20.6459 107.74 21.0755 107.74 21.5052H114.915ZM125.033 11.9881H129.179L133.926 26.3382H135.215V29.1095H131.327L130.21 25.393H124.152L123.035 29.1095H119.082V26.3382H120.371L125.033 11.9881ZM127.117 15.1889L124.861 22.7937H129.351L127.117 15.1889ZM135.065 16.0482H140.264V18.5617H138.975L140.801 26.2525L142.928 16.0484H146.3L148.47 26.0807L150.21 18.5619H148.921V16.0482H154.098V18.5617H152.981L150.21 29.0235H146.751L144.582 20.0224L142.498 29.0235H139.039L136.204 18.5617H135.086L135.065 16.0482ZM166.365 26.5962H167.482V29.1097H163.422V27.5629C162.476 28.766 160.994 29.3889 159.447 29.3889C156.848 29.3889 154.872 27.6489 154.872 25.3288C154.872 21.5264 159.19 21.0968 163.336 20.7531C163.336 18.7552 162.648 18.1537 160.994 18.1537C159.361 18.1537 158.738 18.9271 158.653 20.1516V20.2375L155.538 20.1516C155.709 17.5522 157.793 15.9195 160.908 15.9195C164.539 15.9195 166.451 17.5522 166.451 20.4953L166.365 26.5962ZM163.25 22.9657C160.221 23.2235 158.244 23.4813 158.244 25.3073C158.244 26.3385 159.104 27.0474 160.414 27.0474C161.961 27.0474 163.271 25.8444 163.357 24.2762V22.9872H163.25V22.9657ZM173.626 18.1324C174.485 16.4998 175.452 15.7909 176.912 15.7909C177.428 15.7909 177.858 15.8768 178.373 15.9627V18.9917C177.858 18.9058 177.342 18.8199 176.827 18.8199C175.194 18.7339 173.798 19.937 173.712 21.5052V26.5105H175.258V29.024H169.2V26.5105H170.489V18.5621H169.2V16.0487H173.604V18.1324H173.626ZM191.434 24.7917C190.833 27.6489 188.491 29.3675 185.376 29.3675C181.746 29.3675 179.061 26.5103 179.061 22.5361C179.061 18.5619 181.746 15.7047 185.376 15.7047C187.374 15.7047 189.265 16.6499 190.382 18.39C191.241 19.8508 191.757 21.5049 191.671 23.2235H182.326C182.67 26.5962 184.839 26.7681 185.441 26.7681C186.644 26.854 187.783 25.9947 188.126 24.8562L191.434 24.7917ZM188.062 20.9894C188.062 19.5286 186.859 18.39 185.462 18.39H185.376C183.916 18.39 182.691 19.5071 182.433 20.9034L188.062 20.9894ZM196.784 4.29785C197.192 4.29785 197.535 4.40526 197.75 4.5986C197.987 4.81343 198.094 5.0927 198.094 5.43641C198.094 5.6942 198.03 5.9305 197.922 6.14533C197.793 6.33867 197.6 6.48904 197.342 6.55349V6.57497C197.471 6.59646 197.578 6.63942 197.643 6.70387C197.729 6.76831 197.793 6.83276 197.836 6.91869C197.879 7.00462 197.922 7.09055 197.944 7.17648C197.965 7.28389 197.987 7.36982 197.987 7.47723C197.987 7.58464 198.008 7.69205 198.008 7.79946C198.008 7.90687 198.03 8.01429 198.03 8.1217C198.051 8.22911 198.073 8.33652 198.094 8.42245C198.115 8.50838 198.18 8.59431 198.223 8.68024H197.578C197.535 8.63727 197.514 8.57282 197.492 8.4869C197.471 8.40097 197.471 8.31504 197.471 8.22911C197.471 8.14318 197.471 8.03577 197.45 7.92836C197.45 7.82095 197.428 7.71353 197.407 7.60612C197.385 7.49871 197.364 7.3913 197.342 7.30537C197.321 7.21944 197.278 7.13351 197.235 7.04758C197.192 6.98314 197.106 6.91869 197.02 6.87572C196.934 6.83276 196.827 6.81128 196.676 6.81128H195.258V8.68024H194.678V4.29785H196.784ZM196.912 6.27422C197.041 6.25274 197.149 6.20977 197.235 6.14533C197.321 6.08088 197.407 6.01643 197.45 5.90902C197.514 5.80161 197.535 5.67272 197.535 5.52234C197.535 5.30752 197.471 5.11418 197.342 4.98528C197.213 4.85639 197.02 4.77046 196.741 4.77046H195.301V6.31719H196.504C196.655 6.31719 196.784 6.2957 196.912 6.27422Z" fill="white"/>
<path id="Vector_3" d="M196.376 10.871C194.034 10.871 192.144 8.98056 192.144 6.63899C192.144 4.29742 194.034 2.40698 196.376 2.40698C198.717 2.40698 200.608 4.29742 200.608 6.63899C200.608 8.98056 198.696 10.871 196.376 10.871ZM196.376 3.09442C194.421 3.09442 192.831 4.6841 192.831 6.63899C192.831 8.59388 194.421 10.1836 196.376 10.1836C198.33 10.1836 199.92 8.59388 199.92 6.63899C199.92 4.6841 198.33 3.09442 196.376 3.09442Z" fill="white"/>
</g>
</g>
</g>
</g>
</g>
</g>
</svg>
